<?xml version="1.0" encoding="iso-8859-1"?>
<!-- Generator: Adobe Illustrator 16.0.0, SVG Export Plug-In . SVG Version: 6.00 Build 0)  -->
<!DOCTYPE svg PUBLIC "-//W3C//DTD SVG 1.1//EN" "http://www.w3.org/Graphics/SVG/1.1/DTD/svg11.dtd">
<svg xmlns="http://www.w3.org/2000/svg" xmlns:xlink="http://www.w3.org/1999/xlink" version="1.1" id="Capa_1" x="0px" y="0px" width="512px" height="512px" viewBox="0 0 77.465 77.465" style="enable-background:new 0 0 77.465 77.465;" xml:space="preserve">
<g>
	<g>
		<path d="M36.248,43.11c-0.559-0.324-1.166-0.566-1.841-0.739c0.988-3.946-0.292-6.246-1.556-7.483    c-1.476-1.446-3.377-1.953-4.291-2.198c-1.027-0.276-2.262-0.557-3.606-0.557c-1.908,0-3.583,0.575-4.908,1.671    c-1.322-1.096-2.997-1.671-4.908-1.671c-1.344,0-2.579,0.283-3.604,0.557c-0.916,0.243-2.817,0.751-4.293,2.198    C5.98,36.123,4.7,38.419,5.688,42.371c-0.675,0.171-1.284,0.415-1.843,0.739c-2.121,1.227-3.503,3.332-3.789,5.784    c-0.234,2.012,0.267,4.156,1.451,6.2c1.78,3.084,5.412,4.612,8.353,5.063c0.752,4.143,5.02,8.527,10.184,8.531    c5.162,0,9.432-4.384,10.184-8.531c2.941-0.451,6.573-1.979,8.354-5.062c1.184-2.046,1.683-4.19,1.451-6.197    C39.751,46.442,38.369,44.337,36.248,43.11z M36.562,53.927c-1.429,2.478-4.786,3.8-7.479,4.015l-1.03,0.082l-0.044,1.036    c-0.133,3.279-3.833,7.29-7.963,7.29l-0.002,1.168V66.35c-4.13,0-7.83-4.011-7.961-7.29l-0.044-1.036l-1.03-0.082    c-2.693-0.212-6.05-1.537-7.479-4.017c-0.927-1.608-1.328-3.251-1.15-4.761c0.199-1.711,1.159-3.18,2.635-4.033    c0.626-0.358,1.373-0.584,2.291-0.685l1.438-0.155l-0.457-1.373c-0.109-0.323-0.208-0.639-0.282-0.926    c-0.654-2.44-0.369-4.22,0.874-5.437c1.034-1.016,2.479-1.404,3.261-1.609c0.878-0.236,1.921-0.477,2.998-0.477    c1.663,0,3.053,0.599,4.021,1.729l0.887,1.039l0.888-1.039c0.967-1.13,2.357-1.729,4.02-1.729c1.077,0,2.121,0.241,3.002,0.477    c0.778,0.208,2.223,0.593,3.261,1.609c1.242,1.217,1.53,2.997,0.878,5.437c-0.078,0.287-0.178,0.598-0.288,0.926l-0.456,1.371    l1.437,0.157c0.92,0.101,1.667,0.324,2.292,0.685c1.476,0.854,2.436,2.322,2.635,4.033C37.892,50.674,37.493,52.321,36.562,53.927    z" fill="#FFFFFF"/>
		<g>
			<path d="M77.41,25.538c-0.285-2.453-1.667-4.56-3.788-5.786c-0.56-0.323-1.166-0.566-1.841-0.738     c0.987-3.947-0.292-6.247-1.557-7.484c-1.476-1.446-3.378-1.953-4.29-2.198c-1.029-0.276-2.263-0.557-3.606-0.557     c-1.909,0-3.584,0.575-4.909,1.671c-1.32-1.096-2.997-1.671-4.906-1.671c-1.346,0-2.58,0.283-3.604,0.557     c-0.917,0.243-2.816,0.751-4.293,2.198c-1.261,1.235-2.541,3.531-1.553,7.482c-0.676,0.172-1.286,0.417-1.845,0.74     c-2.121,1.226-3.503,3.333-3.789,5.786c-0.234,2.011,0.267,4.155,1.451,6.199c1.78,3.085,5.412,4.611,8.354,5.064     c0.75,4.143,5.019,8.527,10.183,8.532c5.162,0,9.432-4.385,10.185-8.532c2.94-0.453,6.572-1.979,8.354-5.062     C77.142,29.69,77.641,27.546,77.41,25.538z M73.937,30.568c-1.431,2.479-4.786,3.8-7.479,4.016l-1.029,0.081l-0.045,1.036     c-0.133,3.281-3.833,7.29-7.964,7.29l-0.002,1.168v-1.168c-4.129,0-7.829-4.011-7.961-7.29l-0.043-1.036l-1.031-0.081     c-2.692-0.213-6.05-1.54-7.479-4.018c-0.927-1.607-1.328-3.252-1.15-4.761c0.198-1.709,1.159-3.179,2.636-4.032     c0.625-0.359,1.373-0.584,2.29-0.684l1.437-0.156L45.66,19.56c-0.109-0.325-0.207-0.64-0.28-0.925     c-0.655-2.441-0.37-4.221,0.873-5.438c1.034-1.017,2.479-1.404,3.26-1.609c0.879-0.236,1.923-0.477,3-0.477     c1.663,0,3.052,0.599,4.02,1.729l0.887,1.039l0.888-1.039c0.967-1.13,2.358-1.729,4.021-1.729c1.076,0,2.119,0.24,3.002,0.477     c0.777,0.208,2.222,0.593,3.26,1.609c1.243,1.217,1.53,2.995,0.878,5.436c-0.077,0.288-0.178,0.6-0.287,0.927l-0.456,1.371     l1.437,0.156c0.922,0.1,1.668,0.325,2.293,0.684c1.476,0.854,2.436,2.322,2.634,4.034C75.267,27.314,74.867,28.961,73.937,30.568     z" fill="#FFFFFF"/>
			<path d="M61.794,24.771c2.184,0.584,4.605-3.725,5.413-6.741c0.808-3.018-0.303-3.602-2.484-4.186     c-2.178-0.584-4.603-0.946-5.41,2.069C58.503,18.932,59.613,24.188,61.794,24.771z" fill="#FFFFFF"/>
			<path d="M57.419,34.121c-3.125,0-5.657-0.403-5.657,1.402c0,1.806,2.532,5.132,5.657,5.137c3.125,0,5.657-3.332,5.657-5.137     C63.076,33.718,60.544,34.124,57.419,34.121z" fill="#FFFFFF"/>
			<path d="M53.044,24.771c2.184-0.584,3.292-5.84,2.484-8.857c-0.812-3.018-3.232-2.653-5.413-2.069     c-2.179,0.584-3.292,1.168-2.481,4.186C48.44,21.048,50.863,25.355,53.044,24.771z" fill="#FFFFFF"/>
			<path d="M43.555,23.797c-1.734,0.999-2.012,3.209-0.632,5.604c1.385,2.396,6.243,3.53,7.977,2.529     c1.731-0.999-0.323-3.751-1.706-6.147C47.813,23.389,45.291,22.798,43.555,23.797z" fill="#FFFFFF"/>
			<path d="M71.286,23.797c-1.734-1-4.257-0.411-5.64,1.985c-1.384,2.394-3.441,5.148-1.708,6.147c1.733,1,6.595-0.133,7.977-2.529     C73.295,27.007,73.02,24.8,71.286,23.797z" fill="#FFFFFF"/>
		</g>
		<path d="M24.421,48.128c2.182,0.584,4.604-3.723,5.412-6.738c0.809-3.019-0.303-3.603-2.483-4.187s-4.604-0.947-5.412,2.07    C21.13,42.289,22.239,47.544,24.421,48.128z" fill="#FFFFFF"/>
		<path d="M20.046,57.48c-3.125,0-5.657-0.406-5.657,1.4s2.532,5.133,5.657,5.138c3.125,0,5.657-3.331,5.657-5.138    S23.171,57.48,20.046,57.48z" fill="#FFFFFF"/>
		<path d="M15.671,48.128c2.182-0.584,3.292-5.839,2.483-8.854c-0.811-3.02-3.232-2.654-5.412-2.07s-3.292,1.168-2.483,4.187    C11.067,44.405,13.489,48.712,15.671,48.128z" fill="#FFFFFF"/>
		<path d="M6.181,47.156c-1.733,0.999-2.011,3.207-0.631,5.603c1.384,2.396,6.244,3.531,7.977,2.529    c1.731-0.999-0.325-3.752-1.708-6.147C10.439,46.746,7.917,46.157,6.181,47.156z" fill="#FFFFFF"/>
		<path d="M33.912,47.156c-1.733-0.999-4.256-0.41-5.639,1.984c-1.385,2.396-3.441,5.148-1.708,6.147    c1.733,1.002,6.593-0.134,7.977-2.529C35.922,50.363,35.645,48.158,33.912,47.156z" fill="#FFFFFF"/>
	</g>
</g>
<g>
</g>
<g>
</g>
<g>
</g>
<g>
</g>
<g>
</g>
<g>
</g>
<g>
</g>
<g>
</g>
<g>
</g>
<g>
</g>
<g>
</g>
<g>
</g>
<g>
</g>
<g>
</g>
<g>
</g>
</svg>
