<?xml version="1.0" encoding="iso-8859-1"?>
<!-- Generator: Adobe Illustrator 19.0.0, SVG Export Plug-In . SVG Version: 6.00 Build 0)  -->
<svg xmlns="http://www.w3.org/2000/svg" xmlns:xlink="http://www.w3.org/1999/xlink" version="1.1" id="Layer_1" x="0px" y="0px" viewBox="0 0 496 496" style="enable-background:new 0 0 496 496;" xml:space="preserve" width="512px" height="512px">
<g>
	<g>
		<g>
			<path d="M248,0C111.248,0,0,111.256,0,248s111.248,248,248,248s248-111.256,248-248S384.752,0,248,0z M248,480     C120.08,480,16,375.928,16,248S120.08,16,248,16s232,104.072,232,232S375.92,480,248,480z" fill="#FFFFFF"/>
			<path d="M248,64C146.536,64,64,146.544,64,248s82.536,184,184,184c36.304,0,71.424-10.56,101.56-30.544l-8.84-13.336     C313.208,406.36,281.152,416,248,416c-66.848,0-124.528-39.344-151.56-96H104c22.056,0,40-17.944,40-40v-24h30.816     c-2.872,12.472-10.568,29.608-13.976,36.424l14.312,7.16C176.64,296.616,188,273.48,191.168,256h23.848     c-2.808,14.184-10.928,36.232-14.44,45.032l14.856,5.944c1.464-3.664,12.744-32.256,15.792-50.976h23.784     c-2.808,14.184-10.928,36.232-14.44,45.032l14.856,5.944c1.464-3.664,12.744-32.256,15.792-50.976H288v56h26.336     c36.152,0,68.648-20.088,84.824-52.424l0.84-1.688v-19.784l-0.84-1.688C382.984,204.088,350.488,184,314.336,184H288v56h-16.776     c-3.048-18.712-14.328-47.312-15.792-50.976l-14.856,5.944c3.52,8.8,11.632,30.84,14.44,45.032h-23.784     c-3.048-18.712-14.328-47.312-15.792-50.976l-14.856,5.944c3.52,8.8,11.632,30.84,14.44,45.032h-23.848     c-3.16-17.48-14.52-40.616-16.008-43.576l-14.312,7.16c4.624,9.248,11.312,25.072,13.96,36.424H144v-24c0-22.056-17.944-40-40-40     h-7.56C123.472,119.344,181.152,80,248,80c92.632,0,168,75.36,168,168c0,50.52-22.424,97.888-61.52,129.96l10.144,12.368     C407.44,355.208,432,303.328,432,248C432,146.544,349.464,64,248,64z M304,200h10.336c29.432,0,55.952,16.016,69.664,41.936     v12.128C370.288,279.984,343.768,296,314.336,296H304V200z M128,280c0,10.432-6.688,19.328-16,22.632V280     c0-10.432,6.688-19.328,16-22.632V280z M112,193.368c9.312,3.304,16,12.2,16,22.632v22.632c-9.312-3.304-16-12.2-16-22.632     V193.368z M112.248,248C102.448,255.296,96,266.872,96,280v39.088C85.848,297.464,80,273.432,80,248s5.848-49.464,16-71.088V216     C96,229.128,102.448,240.704,112.248,248z" fill="#FFFFFF"/>
			<rect x="320" y="224" width="16" height="16" fill="#FFFFFF"/>
		</g>
	</g>
</g>
<g>
</g>
<g>
</g>
<g>
</g>
<g>
</g>
<g>
</g>
<g>
</g>
<g>
</g>
<g>
</g>
<g>
</g>
<g>
</g>
<g>
</g>
<g>
</g>
<g>
</g>
<g>
</g>
<g>
</g>
</svg>
