<?xml version="1.0" encoding="iso-8859-1"?>
<!-- Generator: Adobe Illustrator 19.0.0, SVG Export Plug-In . SVG Version: 6.00 Build 0)  -->
<svg xmlns="http://www.w3.org/2000/svg" xmlns:xlink="http://www.w3.org/1999/xlink" version="1.1" id="Layer_1" x="0px" y="0px" viewBox="0 0 496 496" style="enable-background:new 0 0 496 496;" xml:space="preserve" width="512px" height="512px">
<g>
	<g>
		<g>
			<path d="M408,0H88C39.48,0,0,39.48,0,88v80c0,48.52,39.48,88,88,88h80v8c0,13.232,10.768,24,24,24h56h56     c13.232,0,24-10.768,24-24v-8h80c48.52,0,88-39.48,88-88V88C496,39.48,456.52,0,408,0z M168,240H88c-39.696,0-72-32.296-72-72     v-29.456C31.936,161.176,58.272,176,88,176h80V240z M312,264c0,4.416-3.592,8-8,8H192c-4.408,0-8-3.584-8-8V152     c0-4.416,3.592-8,8-8h112c4.408,0,8,3.584,8,8V264z M480,168c0,39.704-32.304,72-72,72h-80v-64h80     c29.728,0,56.064-14.824,72-37.456V168z M479.424,96.696c-0.08,0.656-0.2,1.304-0.296,1.952c-0.36,2.376-0.824,4.736-1.416,7.072     c-0.128,0.496-0.248,0.992-0.384,1.488c-0.464,1.656-1.088,3.256-1.664,4.872C459.08,92.072,434.328,80,408,80h-24v16h24     c24.008,0,46.408,12.28,59.72,32.176C454.768,147.36,432.832,160,408,160h-80v-8c0-13.232-10.768-24-24-24H192     c-13.232,0-24,10.768-24,24v8H88c-24.832,0-46.768-12.64-59.72-31.824C41.592,108.28,63.992,96,88,96h280V80H88     c-26.328,0-51.08,12.072-67.656,32.08c-0.576-1.616-1.2-3.224-1.664-4.872c-0.136-0.496-0.256-0.992-0.384-1.488     c-0.6-2.328-1.056-4.688-1.416-7.072c-0.096-0.656-0.216-1.296-0.296-1.952C16.224,93.816,16,90.912,16,88     c0-39.704,32.304-72,72-72h320c39.696,0,72,32.296,72,72C480,90.912,479.776,93.816,479.424,96.696z" fill="#FFFFFF"/>
			<path d="M144,392c0,57.344,46.656,104,104,104s104-46.656,104-104s-46.656-104-104-104S144,334.656,144,392z M248,304     c48.52,0,88,39.48,88,88c0,40.192-27.12,74.104-64,84.592V456h-16v23.592c-2.64,0.24-5.296,0.408-8,0.408     c-2.704,0-5.36-0.168-8-0.408V414.96l-3.976-2.312C228.496,408.264,224,400.544,224,392c0-13.232,10.768-24,24-24     s24,10.768,24,24c0,8.544-4.496,16.264-12.024,20.648L256,414.96V440h16v-16.168c9.968-7.512,16-19.328,16-31.832     c0-22.056-17.944-40-40-40c-22.056,0-40,17.944-40,40c0,12.504,6.032,24.32,16,31.832v52.752c-36.88-10.48-64-44.392-64-84.592     C160,343.48,199.48,304,248,304z" fill="#FFFFFF"/>
			<path d="M200,256h96v-96h-96V256z M216,176h64v64h-64V176z" fill="#FFFFFF"/>
			<rect x="240" y="200" width="16" height="16" fill="#FFFFFF"/>
			<rect x="136" y="192" width="16" height="16" fill="#FFFFFF"/>
			<rect x="72" y="192" width="48" height="16" fill="#FFFFFF"/>
			<path d="M248,336v-16c-25.56,0-49.432,13.792-62.288,35.992l13.84,8.016C209.56,346.736,228.128,336,248,336z" fill="#FFFFFF"/>
			<path d="M192,392c0-4.536,0.624-9.248,1.84-14.008l-15.496-3.984C176.792,380.064,176,386.112,176,392H192z" fill="#FFFFFF"/>
		</g>
	</g>
</g>
<g>
</g>
<g>
</g>
<g>
</g>
<g>
</g>
<g>
</g>
<g>
</g>
<g>
</g>
<g>
</g>
<g>
</g>
<g>
</g>
<g>
</g>
<g>
</g>
<g>
</g>
<g>
</g>
<g>
</g>
</svg>
