<?xml version="1.0" encoding="iso-8859-1"?>
<!-- Generator: Adobe Illustrator 19.0.0, SVG Export Plug-In . SVG Version: 6.00 Build 0)  -->
<svg xmlns="http://www.w3.org/2000/svg" xmlns:xlink="http://www.w3.org/1999/xlink" version="1.1" id="Layer_1" x="0px" y="0px" viewBox="0 0 496 496" style="enable-background:new 0 0 496 496;" xml:space="preserve" width="512px" height="512px">
<g>
	<g>
		<g>
			<path d="M427.312,128H208v128v240h288V196.688L427.312,128z M432,160v-4.688L468.688,192H464h-32V160z M448,208v144H256V176h160     v16h-8c-31.608,0-47.744,18.576-53.672,32.12c-0.784-0.032-1.544-0.12-2.328-0.12s-1.544,0.088-2.328,0.12     C343.744,210.576,327.608,192,296,192h-8v8c0,4,0.464,36.344,13.6,55.752c-3.552,7.352-5.6,15.552-5.6,24.248     c0,30.872,25.12,56,56,56s56-25.128,56-56c0-8.696-2.048-16.896-5.6-24.248C415.536,236.344,416,204,416,200v8H448z M352,240     c22.056,0,40,17.944,40,40c0,22.056-17.944,40-40,40c-22.056,0-40-17.944-40-40C312,257.944,329.944,240,352,240z M311.712,241.2     c-4.496-9.864-6.552-23.08-7.32-32.616c16.752,2.448,25.048,12.016,28.896,18.696C325.032,230.216,317.672,235.008,311.712,241.2     z M370.712,227.288c3.848-6.656,12.16-16.24,28.896-18.696c-0.768,9.536-2.824,22.744-7.32,32.608     C386.328,235.016,378.968,230.224,370.712,227.288z M480,480H224V144h192v16H240v208h224V208h16V480z" fill="#FFFFFF"/>
			<rect x="240" y="384" width="224" height="16" fill="#FFFFFF"/>
			<rect x="240" y="416" width="224" height="16" fill="#FFFFFF"/>
			<rect x="448" y="448" width="16" height="16" fill="#FFFFFF"/>
			<rect x="336" y="448" width="96" height="16" fill="#FFFFFF"/>
			<path d="M160,208c-26.472,0-48,21.528-48,48c0,23.736,17.336,43.448,40,47.28V456c0,13.232-10.768,24-24,24s-24-10.768-24-24     V191.592c49.192-4.088,88-45.36,88-95.592V16h-33.472C155.216,6.712,146.416,0,136,0c-13.232,0-24,10.768-24,24s10.768,24,24,24     c10.416,0,19.216-6.712,22.528-16H176v64c0,44.112-35.888,80-80,80s-80-35.888-80-80V32h17.472C36.784,41.288,45.584,48,56,48     c13.232,0,24-10.768,24-24S69.232,0,56,0C45.584,0,36.784,6.712,33.472,16H0v80c0,50.232,38.808,91.504,88,95.592V456     c0,22.056,17.944,40,40,40c22.056,0,40-17.944,40-40V303.28c22.664-3.824,40-23.536,40-47.28C208,229.528,186.472,208,160,208z      M136,32c-4.408,0-8-3.592-8-8s3.592-8,8-8s8,3.592,8,8S140.408,32,136,32z M56,16c4.408,0,8,3.592,8,8s-3.592,8-8,8     s-8-3.592-8-8S51.592,16,56,16z M160,288c-17.648,0-32-14.352-32-32s14.352-32,32-32s32,14.352,32,32S177.648,288,160,288z" fill="#FFFFFF"/>
		</g>
	</g>
</g>
<g>
</g>
<g>
</g>
<g>
</g>
<g>
</g>
<g>
</g>
<g>
</g>
<g>
</g>
<g>
</g>
<g>
</g>
<g>
</g>
<g>
</g>
<g>
</g>
<g>
</g>
<g>
</g>
<g>
</g>
</svg>
