<?xml version="1.0" encoding="iso-8859-1"?>
<!-- Generator: Adobe Illustrator 19.0.0, SVG Export Plug-In . SVG Version: 6.00 Build 0)  -->
<svg xmlns="http://www.w3.org/2000/svg" xmlns:xlink="http://www.w3.org/1999/xlink" version="1.1" id="Layer_1" x="0px" y="0px" viewBox="0 0 496 496" style="enable-background:new 0 0 496 496;" xml:space="preserve" width="512px" height="512px">
<g>
	<g>
		<g>
			<path d="M368,480v-97.472c9.288-3.312,16-12.112,16-22.528c0-6.168-2.408-11.744-6.24-16c3.84-4.256,6.24-9.832,6.24-16     c0-6.168-2.408-11.744-6.24-16c3.84-4.256,6.24-9.832,6.24-16c0-6.168-2.408-11.744-6.24-16c3.84-4.256,6.24-9.832,6.24-16     c0-6.168-2.408-11.744-6.24-16c3.84-4.256,6.24-9.832,6.24-16c0-6.168-2.408-11.744-6.24-16c3.84-4.256,6.24-9.832,6.24-16     c0-6.168-2.408-11.744-6.24-16c3.84-4.256,6.24-9.832,6.24-16c0-6.168-2.408-11.744-6.24-16c3.84-4.256,6.24-9.832,6.24-16     c0-6.168-2.408-11.744-6.24-16c3.84-4.256,6.24-9.832,6.24-16c0-10.416-6.712-19.216-16-22.528V0H128v81.472     c-9.288,3.312-16,12.112-16,22.528c0,6.168,2.408,11.744,6.24,16c-3.84,4.256-6.24,9.832-6.24,16c0,6.168,2.408,11.744,6.24,16     c-3.84,4.256-6.24,9.832-6.24,16c0,6.168,2.408,11.744,6.24,16c-3.84,4.256-6.24,9.832-6.24,16c0,6.168,2.408,11.744,6.24,16     c-3.84,4.256-6.24,9.832-6.24,16c0,6.168,2.408,11.744,6.24,16c-3.84,4.256-6.24,9.832-6.24,16c0,6.168,2.408,11.744,6.24,16     c-3.84,4.256-6.24,9.832-6.24,16c0,6.168,2.408,11.744,6.24,16c-3.84,4.256-6.24,9.832-6.24,16c0,6.168,2.408,11.744,6.24,16     c-3.84,4.256-6.24,9.832-6.24,16c0,10.416,6.712,19.216,16,22.528V480H0v16h496v-16H368z M144,16h208v64H144V16z M136,112     c-4.408,0-8-3.592-8-8s3.592-8,8-8h224c4.408,0,8,3.592,8,8s-3.592,8-8,8h-40v16h40c4.408,0,8,3.592,8,8s-3.592,8-8,8H136     c-4.408,0-8-3.592-8-8s3.592-8,8-8h168v-16H136z M136,176c-4.408,0-8-3.592-8-8s3.592-8,8-8h224c4.408,0,8,3.592,8,8     s-3.592,8-8,8H168v16h192c4.408,0,8,3.592,8,8s-3.592,8-8,8H136c-4.408,0-8-3.592-8-8s3.592-8,8-8h16v-16H136z M136,224h224     c4.408,0,8,3.592,8,8s-3.592,8-8,8H136c-4.408,0-8-3.592-8-8S131.592,224,136,224z M136,256h224c4.408,0,8,3.592,8,8     c0,4.408-3.592,8-8,8H136c-4.408,0-8-3.592-8-8C128,259.592,131.592,256,136,256z M136,288h224c4.408,0,8,3.592,8,8     c0,4.408-3.592,8-8,8H136c-4.408,0-8-3.592-8-8C128,291.592,131.592,288,136,288z M352,480H144v-96h208V480z M360,368H136     c-4.408,0-8-3.592-8-8c0-4.408,3.592-8,8-8h48v-16h-48c-4.408,0-8-3.592-8-8c0-4.408,3.592-8,8-8h224c4.408,0,8,3.592,8,8     c0,4.408-3.592,8-8,8H200v16h160c4.408,0,8,3.592,8,8C368,364.408,364.408,368,360,368z" fill="#FFFFFF"/>
			<rect x="160" y="32" width="128" height="16" fill="#FFFFFF"/>
			<rect x="304" y="32" width="16" height="16" fill="#FFFFFF"/>
		</g>
	</g>
</g>
<g>
</g>
<g>
</g>
<g>
</g>
<g>
</g>
<g>
</g>
<g>
</g>
<g>
</g>
<g>
</g>
<g>
</g>
<g>
</g>
<g>
</g>
<g>
</g>
<g>
</g>
<g>
</g>
<g>
</g>
</svg>
