<?xml version="1.0" encoding="iso-8859-1"?>
<!-- Generator: Adobe Illustrator 19.0.0, SVG Export Plug-In . SVG Version: 6.00 Build 0)  -->
<svg xmlns="http://www.w3.org/2000/svg" xmlns:xlink="http://www.w3.org/1999/xlink" version="1.1" id="Layer_1" x="0px" y="0px" viewBox="0 0 512 512" style="enable-background:new 0 0 512 512;" xml:space="preserve" width="512px" height="512px">
<g>
	<g>
		<circle cx="16.696" cy="495.304" r="16.696" fill="#FFFFFF"/>
	</g>
</g>
<g>
	<g>
		<path d="M94.609,367.304c-27.618,0-50.087,22.469-50.087,50.087s22.469,50.087,50.087,50.087    c27.618,0,50.087-22.469,50.087-50.087S122.227,367.304,94.609,367.304z M94.609,434.087c-9.206,0-16.696-7.49-16.696-16.696    s7.49-16.696,16.696-16.696s16.696,7.49,16.696,16.696S103.815,434.087,94.609,434.087z" fill="#FFFFFF"/>
	</g>
</g>
<g>
	<g>
		<path d="M356.174,172.522h-26.476l38.282-38.282c10.475-10.476,3.059-28.501-11.806-28.501h-66.783    c-9.22,0-16.696,7.475-16.696,16.696c0,9.22,7.475,16.696,16.696,16.696h26.476l-38.282,38.282    c-10.475,10.476-3.059,28.501,11.806,28.501h66.783c9.22,0,16.696-7.475,16.696-16.696S365.394,172.522,356.174,172.522z" fill="#FFFFFF"/>
	</g>
</g>
<g>
	<g>
		<path d="M222.609,205.913h-26.476l38.281-38.282c10.482-10.48,3.055-28.501-11.805-28.501h-66.783    c-9.22,0-16.696,7.475-16.696,16.696s7.475,16.696,16.696,16.696h26.476l-38.281,38.282c-10.482,10.48-3.055,28.501,11.805,28.501    h66.783c9.22,0,16.696-7.475,16.696-16.696S231.829,205.913,222.609,205.913z" fill="#FFFFFF"/>
	</g>
</g>
<g>
	<g>
		<path d="M442.949,102.442c-11.56-50.003-64.055-81.076-114.436-64.652C312.047,14.425,285.039,0,256,0    s-56.048,14.425-72.511,37.79C133.069,21.355,80.6,52.486,69.051,102.442C29.406,111.607,0,147.415,0,189.217    c0,41.803,29.406,77.61,69.051,86.775c11.558,49.992,64.043,81.08,114.436,64.652c16.464,23.365,43.473,37.79,72.513,37.79    s56.047-14.425,72.511-37.79c50.411,16.434,102.886-14.688,114.436-64.652C482.593,266.828,512,231.02,512,189.217    C512,147.415,482.593,111.607,442.949,102.442z M427.099,244.718c-8.253,0.609-14.816,7.17-15.423,15.423    c-2.938,39.893-46.623,64.174-82.168,44.719c-8.516-4.663-19.172-1.091-23.195,7.688c-9.049,19.74-28.798,32.495-50.313,32.495    s-41.264-12.755-50.312-32.494c-4.029-8.792-14.694-12.343-23.194-7.688c-35.507,19.434-79.228-4.789-82.169-44.719    c-0.608-8.253-7.17-14.816-15.423-15.423c-28.885-2.128-51.511-26.507-51.511-55.502c0-28.995,22.626-53.374,51.509-55.501    c8.253-0.609,14.816-7.17,15.423-15.423c2.938-39.884,46.614-64.178,82.169-44.719c8.501,4.655,19.163,1.106,23.194-7.688    c9.049-19.74,28.798-32.495,50.313-32.495s41.264,12.755,50.312,32.494c4.035,8.805,14.704,12.337,23.195,7.688    c35.506-19.434,79.228,4.789,82.168,44.719c0.609,8.253,7.17,14.816,15.423,15.423c28.885,2.128,51.511,26.507,51.511,55.502    C478.609,218.212,455.983,242.591,427.099,244.718z" fill="#FFFFFF"/>
	</g>
</g>
<g>
</g>
<g>
</g>
<g>
</g>
<g>
</g>
<g>
</g>
<g>
</g>
<g>
</g>
<g>
</g>
<g>
</g>
<g>
</g>
<g>
</g>
<g>
</g>
<g>
</g>
<g>
</g>
<g>
</g>
</svg>
